<svg width="192" height="151" viewBox="0 0 192 151" fill="none" xmlns="http://www.w3.org/2000/svg">
<path d="M105.613 39L131.632 39.8457L105.613 64.7307V39ZM103.723 40.3893V66.0293H79.5343C87.7828 57.6691 95.6927 48.9801 103.723 40.3893ZM130.244 43.8623L133.582 45.0099L121.532 52.1673L130.244 43.8623ZM64.9742 46.7012H70.2608L82.5764 60.1704L76.8468 66.0293H64.9742C64.975 59.5824 64.9742 53.1447 64.9742 46.7012ZM63.0839 47.879V53.466H57L63.0839 47.879ZM66.3032 67.9622H103.28L92.9723 96.1391L66.3032 67.9622ZM103.723 72.3109V111.753L91.6728 105.169C95.6907 94.215 99.703 83.2676 103.723 72.3109Z" fill="#FF6B35"/>
</svg>
